# xmcd
#
# Track frame offsets: 
#        150
#        11162
#        24387
#        38562
#        52820
#        63352
#        76460
#        89265
#        104595
#        117765
#        131570
#        146400
#        158270
#        171912
#        185537
#        197527
#        211605
#        225500
#        238527
#        249680
#        263675
#        277497
#        289557
#        302472
#        316257
#
# Disc length: 4407 seconds
#
# Revision: 1
# Processed by: cddbd v1.5.2PL0 Copyright (c) Steve Scherf et al.
# Submitted via: ExactAudioCopy v1.1
#
DISCID=49113519
DTITLE=Various Artist - The Cocktail Combos (Capitol) - Disc 1
DYEAR=1997
DGENRE=Blues
TTITLE0=Nat King Cole Trio - Straighten Up And Fly Right (mono)
TTITLE1=Nat King Cole Trio - Gee Baby, Ain't I Good To You (mono)
TTITLE2=Nat King Cole Trio - Sweet Lorraine (mono)
TTITLE3=Nat King Cole Trio - Easy Listening Blues (mono)
TTITLE4=Nat King Cole Trio - Bring Another Drink (mono)
TTITLE5=Nat King Cole Trio - I'm A Shy Guy (mono)
TTITLE6=Nat King Cole Trio - You're Nobody 'Til Somebody Loves You (mo
TTITLE6=no)
TTITLE7=Nat King Cole Trio - Don't Blame Me (mono)
TTITLE8=Nat King Cole Trio - I'm Through With Love (mono)
TTITLE9=Nat King Cole Trio - Come To Baby, Do! (mono)
TTITLE10=Nat King Cole Trio - The Frim Fram Sauce (mono)
TTITLE11=Nat King Cole Trio - Loan Me Two Till Tuesday (mono)
TTITLE12=Nat King Cole Trio - (Get Your Kicks On) Route 66 (mono)
TTITLE13=Nat King Cole Trio - Baby, Baby All The Time (mono)
TTITLE14=Nat King Cole Trio - Oh, But I Do! (mono)
TTITLE15=Nat King Cole Trio - But She's My Buddy's Chick (mono)
TTITLE16=Nat King Cole Trio - You Call It Madness (But I Call It Love)
TTITLE16=(mono)
TTITLE17=Nat King Cole Trio - (I Love You) For Sentimental Reasons (mo
TTITLE17=no)
TTITLE18=Nat King Cole Trio - You're The Cream In My Coffee (mono)
TTITLE19=Nat King Cole Trio - You Don't Learn That In School (mono)
TTITLE20=Nat King Cole Trio - I Miss You So (mono)
TTITLE21=Nat King Cole Trio - I Think You Get What I Mean (mono)
TTITLE22=Nat King Cole Trio - (Everyone Has Someone) But All I've Got 
TTITLE22=Is Me (mono)
TTITLE23=Nat King Cole Trio - What'll I Do (mono)
TTITLE24=Nat King Cole Trio - I'll String Along With You (mono)
EXTD=YEAR: 1997
EXTT0=
EXTT1=
EXTT2=
EXTT3=
EXTT4=
EXTT5=
EXTT6=
EXTT7=
EXTT8=
EXTT9=
EXTT10=
EXTT11=
EXTT12=
EXTT13=
EXTT14=
EXTT15=
EXTT16=
EXTT17=
EXTT18=
EXTT19=
EXTT20=
EXTT21=
EXTT22=
EXTT23=
EXTT24=
PLAYORDER=
